<mxfile host="app.diagrams.net" modified="2022-10-25T16:44:34.183Z" agent="5.0 (Windows)" etag="Y0smLRKaTSCf1Gl30vfs" version="20.5.1" type="github">
  <diagram id="D5xratnxsckLip4hi4yR" name="Page-1">
    <mxGraphModel dx="1826" dy="766" grid="1" gridSize="10" guides="1" tooltips="1" connect="1" arrows="1" fold="1" page="1" pageScale="1" pageWidth="827" pageHeight="1169" math="0" shadow="0">
      <root>
        <mxCell id="0" />
        <mxCell id="1" parent="0" />
        <mxCell id="GlLHrX8HVXs2rdk0OE1O-10" value="" style="edgeStyle=orthogonalEdgeStyle;rounded=0;orthogonalLoop=1;jettySize=auto;html=1;" edge="1" parent="1" source="GlLHrX8HVXs2rdk0OE1O-4">
          <mxGeometry relative="1" as="geometry">
            <mxPoint x="420" y="140" as="targetPoint" />
          </mxGeometry>
        </mxCell>
        <mxCell id="GlLHrX8HVXs2rdk0OE1O-4" value="Start phase" style="ellipse;whiteSpace=wrap;html=1;aspect=fixed;" vertex="1" parent="1">
          <mxGeometry x="380" y="30" width="80" height="80" as="geometry" />
        </mxCell>
        <mxCell id="GlLHrX8HVXs2rdk0OE1O-35" value="" style="edgeStyle=orthogonalEdgeStyle;rounded=0;orthogonalLoop=1;jettySize=auto;html=1;" edge="1" parent="1" source="GlLHrX8HVXs2rdk0OE1O-16" target="GlLHrX8HVXs2rdk0OE1O-25">
          <mxGeometry relative="1" as="geometry" />
        </mxCell>
        <mxCell id="GlLHrX8HVXs2rdk0OE1O-16" value="Month" style="shape=mxgraph.sysml.compState;align=left;verticalAlign=top;spacingTop=-3;spacingLeft=18;strokeWidth=1;recursiveResize=0;" vertex="1" parent="1">
          <mxGeometry x="350" y="140" width="140" height="160" as="geometry" />
        </mxCell>
        <mxCell id="GlLHrX8HVXs2rdk0OE1O-17" value="" style="shape=ellipse;html=1;fillColor=strokeColor;verticalLabelPosition=bottom;labelBackgroundColor=#ffffff;verticalAlign=top;" vertex="1" parent="GlLHrX8HVXs2rdk0OE1O-16">
          <mxGeometry x="60" y="30" width="20" height="20" as="geometry" />
        </mxCell>
        <mxCell id="GlLHrX8HVXs2rdk0OE1O-19" value="Increment time" style="strokeColor=inherit;fillColor=inherit;gradientColor=inherit;shape=rect;html=1;rounded=1;whiteSpace=wrap;align=center;" vertex="1" parent="GlLHrX8HVXs2rdk0OE1O-16">
          <mxGeometry x="20" y="80" width="100" height="40" as="geometry" />
        </mxCell>
        <mxCell id="GlLHrX8HVXs2rdk0OE1O-21" value="" style="strokeColor=inherit;fillColor=inherit;gradientColor=inherit;edgeStyle=none;html=1;endArrow=open;endSize=12;rounded=0;" edge="1" parent="GlLHrX8HVXs2rdk0OE1O-16" target="GlLHrX8HVXs2rdk0OE1O-19">
          <mxGeometry relative="1" as="geometry">
            <mxPoint x="70" y="50" as="sourcePoint" />
          </mxGeometry>
        </mxCell>
        <mxCell id="GlLHrX8HVXs2rdk0OE1O-36" value="" style="edgeStyle=orthogonalEdgeStyle;rounded=0;orthogonalLoop=1;jettySize=auto;html=1;" edge="1" parent="1" source="GlLHrX8HVXs2rdk0OE1O-23" target="GlLHrX8HVXs2rdk0OE1O-29">
          <mxGeometry relative="1" as="geometry" />
        </mxCell>
        <mxCell id="GlLHrX8HVXs2rdk0OE1O-23" value="Day" style="shape=mxgraph.sysml.compState;align=left;verticalAlign=top;spacingTop=-3;spacingLeft=18;strokeWidth=1;recursiveResize=0;" vertex="1" parent="1">
          <mxGeometry x="350" y="320" width="140" height="160" as="geometry" />
        </mxCell>
        <mxCell id="GlLHrX8HVXs2rdk0OE1O-24" value="" style="shape=ellipse;html=1;fillColor=strokeColor;verticalLabelPosition=bottom;labelBackgroundColor=#ffffff;verticalAlign=top;" vertex="1" parent="GlLHrX8HVXs2rdk0OE1O-23">
          <mxGeometry x="60" y="30" width="20" height="20" as="geometry" />
        </mxCell>
        <mxCell id="GlLHrX8HVXs2rdk0OE1O-25" value="Increment time" style="strokeColor=inherit;fillColor=inherit;gradientColor=inherit;shape=rect;html=1;rounded=1;whiteSpace=wrap;align=center;" vertex="1" parent="GlLHrX8HVXs2rdk0OE1O-23">
          <mxGeometry x="20" y="80" width="100" height="40" as="geometry" />
        </mxCell>
        <mxCell id="GlLHrX8HVXs2rdk0OE1O-26" value="" style="strokeColor=inherit;fillColor=inherit;gradientColor=inherit;edgeStyle=none;html=1;endArrow=open;endSize=12;rounded=0;" edge="1" parent="GlLHrX8HVXs2rdk0OE1O-23" target="GlLHrX8HVXs2rdk0OE1O-25">
          <mxGeometry relative="1" as="geometry">
            <mxPoint x="70" y="50" as="sourcePoint" />
          </mxGeometry>
        </mxCell>
        <mxCell id="GlLHrX8HVXs2rdk0OE1O-37" value="" style="edgeStyle=orthogonalEdgeStyle;rounded=0;orthogonalLoop=1;jettySize=auto;html=1;" edge="1" parent="1" source="GlLHrX8HVXs2rdk0OE1O-27" target="GlLHrX8HVXs2rdk0OE1O-33">
          <mxGeometry relative="1" as="geometry" />
        </mxCell>
        <mxCell id="GlLHrX8HVXs2rdk0OE1O-27" value="hour" style="shape=mxgraph.sysml.compState;align=left;verticalAlign=top;spacingTop=-3;spacingLeft=18;strokeWidth=1;recursiveResize=0;" vertex="1" parent="1">
          <mxGeometry x="350" y="500" width="140" height="160" as="geometry" />
        </mxCell>
        <mxCell id="GlLHrX8HVXs2rdk0OE1O-28" value="" style="shape=ellipse;html=1;fillColor=strokeColor;verticalLabelPosition=bottom;labelBackgroundColor=#ffffff;verticalAlign=top;" vertex="1" parent="GlLHrX8HVXs2rdk0OE1O-27">
          <mxGeometry x="60" y="30" width="20" height="20" as="geometry" />
        </mxCell>
        <mxCell id="GlLHrX8HVXs2rdk0OE1O-29" value="Increment time" style="strokeColor=inherit;fillColor=inherit;gradientColor=inherit;shape=rect;html=1;rounded=1;whiteSpace=wrap;align=center;" vertex="1" parent="GlLHrX8HVXs2rdk0OE1O-27">
          <mxGeometry x="20" y="80" width="100" height="40" as="geometry" />
        </mxCell>
        <mxCell id="GlLHrX8HVXs2rdk0OE1O-30" value="" style="strokeColor=inherit;fillColor=inherit;gradientColor=inherit;edgeStyle=none;html=1;endArrow=open;endSize=12;rounded=0;" edge="1" parent="GlLHrX8HVXs2rdk0OE1O-27" target="GlLHrX8HVXs2rdk0OE1O-29">
          <mxGeometry relative="1" as="geometry">
            <mxPoint x="70" y="50" as="sourcePoint" />
          </mxGeometry>
        </mxCell>
        <mxCell id="GlLHrX8HVXs2rdk0OE1O-38" style="edgeStyle=orthogonalEdgeStyle;rounded=0;orthogonalLoop=1;jettySize=auto;html=1;exitX=0;exitY=0;exitDx=0;exitDy=90;exitPerimeter=0;entryX=0;entryY=0.5;entryDx=0;entryDy=0;" edge="1" parent="1" source="GlLHrX8HVXs2rdk0OE1O-31" target="GlLHrX8HVXs2rdk0OE1O-4">
          <mxGeometry relative="1" as="geometry">
            <mxPoint x="300" y="340" as="targetPoint" />
          </mxGeometry>
        </mxCell>
        <mxCell id="GlLHrX8HVXs2rdk0OE1O-31" value="minute" style="shape=mxgraph.sysml.compState;align=left;verticalAlign=top;spacingTop=-3;spacingLeft=18;strokeWidth=1;recursiveResize=0;" vertex="1" parent="1">
          <mxGeometry x="350" y="680" width="140" height="160" as="geometry" />
        </mxCell>
        <mxCell id="GlLHrX8HVXs2rdk0OE1O-32" value="" style="shape=ellipse;html=1;fillColor=strokeColor;verticalLabelPosition=bottom;labelBackgroundColor=#ffffff;verticalAlign=top;" vertex="1" parent="GlLHrX8HVXs2rdk0OE1O-31">
          <mxGeometry x="60" y="30" width="20" height="20" as="geometry" />
        </mxCell>
        <mxCell id="GlLHrX8HVXs2rdk0OE1O-33" value="Increment time" style="strokeColor=inherit;fillColor=inherit;gradientColor=inherit;shape=rect;html=1;rounded=1;whiteSpace=wrap;align=center;" vertex="1" parent="GlLHrX8HVXs2rdk0OE1O-31">
          <mxGeometry x="20" y="80" width="100" height="40" as="geometry" />
        </mxCell>
        <mxCell id="GlLHrX8HVXs2rdk0OE1O-34" value="" style="strokeColor=inherit;fillColor=inherit;gradientColor=inherit;edgeStyle=none;html=1;endArrow=open;endSize=12;rounded=0;" edge="1" parent="GlLHrX8HVXs2rdk0OE1O-31" target="GlLHrX8HVXs2rdk0OE1O-33">
          <mxGeometry relative="1" as="geometry">
            <mxPoint x="70" y="50" as="sourcePoint" />
          </mxGeometry>
        </mxCell>
        <mxCell id="GlLHrX8HVXs2rdk0OE1O-41" value="" style="edgeStyle=orthogonalEdgeStyle;rounded=0;orthogonalLoop=1;jettySize=auto;html=1;" edge="1" parent="1" source="GlLHrX8HVXs2rdk0OE1O-39" target="GlLHrX8HVXs2rdk0OE1O-40">
          <mxGeometry relative="1" as="geometry" />
        </mxCell>
        <mxCell id="GlLHrX8HVXs2rdk0OE1O-39" value="Start phase" style="strokeWidth=2;html=1;shape=mxgraph.flowchart.start_2;whiteSpace=wrap;" vertex="1" parent="1">
          <mxGeometry x="560" y="60" width="100" height="100" as="geometry" />
        </mxCell>
        <mxCell id="GlLHrX8HVXs2rdk0OE1O-45" value="" style="edgeStyle=orthogonalEdgeStyle;rounded=0;orthogonalLoop=1;jettySize=auto;html=1;" edge="1" parent="1" source="GlLHrX8HVXs2rdk0OE1O-40" target="GlLHrX8HVXs2rdk0OE1O-42">
          <mxGeometry relative="1" as="geometry" />
        </mxCell>
        <mxCell id="GlLHrX8HVXs2rdk0OE1O-40" value="Month" style="shape=folder;align=center;verticalAlign=middle;fontStyle=0;tabWidth=100;tabHeight=30;tabPosition=left;html=1;boundedLbl=1;labelInHeader=1;rounded=1;absoluteArcSize=1;arcSize=10;" vertex="1" parent="1">
          <mxGeometry x="540" y="210" width="140" height="90" as="geometry" />
        </mxCell>
        <mxCell id="GlLHrX8HVXs2rdk0OE1O-46" value="" style="edgeStyle=orthogonalEdgeStyle;rounded=0;orthogonalLoop=1;jettySize=auto;html=1;" edge="1" parent="1" source="GlLHrX8HVXs2rdk0OE1O-42" target="GlLHrX8HVXs2rdk0OE1O-43">
          <mxGeometry relative="1" as="geometry" />
        </mxCell>
        <mxCell id="GlLHrX8HVXs2rdk0OE1O-42" value="Day" style="shape=folder;align=center;verticalAlign=middle;fontStyle=0;tabWidth=100;tabHeight=30;tabPosition=left;html=1;boundedLbl=1;labelInHeader=1;rounded=1;absoluteArcSize=1;arcSize=10;" vertex="1" parent="1">
          <mxGeometry x="540" y="330" width="140" height="90" as="geometry" />
        </mxCell>
        <mxCell id="GlLHrX8HVXs2rdk0OE1O-47" value="" style="edgeStyle=orthogonalEdgeStyle;rounded=0;orthogonalLoop=1;jettySize=auto;html=1;" edge="1" parent="1" source="GlLHrX8HVXs2rdk0OE1O-43" target="GlLHrX8HVXs2rdk0OE1O-44">
          <mxGeometry relative="1" as="geometry" />
        </mxCell>
        <mxCell id="GlLHrX8HVXs2rdk0OE1O-43" value="Hour" style="shape=folder;align=center;verticalAlign=middle;fontStyle=0;tabWidth=100;tabHeight=30;tabPosition=left;html=1;boundedLbl=1;labelInHeader=1;rounded=1;absoluteArcSize=1;arcSize=10;" vertex="1" parent="1">
          <mxGeometry x="540" y="450" width="140" height="90" as="geometry" />
        </mxCell>
        <mxCell id="GlLHrX8HVXs2rdk0OE1O-44" value="Minute" style="shape=folder;align=center;verticalAlign=middle;fontStyle=0;tabWidth=100;tabHeight=30;tabPosition=left;html=1;boundedLbl=1;labelInHeader=1;rounded=1;absoluteArcSize=1;arcSize=10;" vertex="1" parent="1">
          <mxGeometry x="540" y="570" width="140" height="90" as="geometry" />
        </mxCell>
        <mxCell id="GlLHrX8HVXs2rdk0OE1O-48" value="Set Time" style="text;html=1;strokeColor=none;fillColor=none;align=center;verticalAlign=middle;whiteSpace=wrap;rounded=0;" vertex="1" parent="1">
          <mxGeometry x="560" y="250" width="60" height="30" as="geometry" />
        </mxCell>
        <mxCell id="GlLHrX8HVXs2rdk0OE1O-49" value="Set Time" style="text;html=1;strokeColor=none;fillColor=none;align=center;verticalAlign=middle;whiteSpace=wrap;rounded=0;" vertex="1" parent="1">
          <mxGeometry x="570" y="370" width="60" height="30" as="geometry" />
        </mxCell>
        <mxCell id="GlLHrX8HVXs2rdk0OE1O-51" value="Set Time" style="text;html=1;strokeColor=none;fillColor=none;align=center;verticalAlign=middle;whiteSpace=wrap;rounded=0;" vertex="1" parent="1">
          <mxGeometry x="570" y="490" width="60" height="30" as="geometry" />
        </mxCell>
        <mxCell id="GlLHrX8HVXs2rdk0OE1O-52" value="Set Time" style="text;html=1;strokeColor=none;fillColor=none;align=center;verticalAlign=middle;whiteSpace=wrap;rounded=0;" vertex="1" parent="1">
          <mxGeometry x="570" y="610" width="60" height="30" as="geometry" />
        </mxCell>
      </root>
    </mxGraphModel>
  </diagram>
</mxfile>
